<svg width="52" height="52" viewBox="0 0 52 52" fill="none" xmlns="http://www.w3.org/2000/svg">
<g filter="url(#filter0_d)">
<rect x="6" y="6" width="40" height="40" rx="11.4286" fill="#548DE6"/>
<path d="M30.5333 21.6667V19.5C30.5333 18.7831 29.9502 18.2 29.2333 18.2H27.8987L27.4985 13.3974C27.4797 13.1727 27.292 13 27.0667 13H25.3333C25.108 13 24.9203 13.1727 24.9015 13.3974L24.5013 18.2H23.1667C22.4498 18.2 21.8667 18.7831 21.8667 19.5V21.6667C21.3887 21.6667 21 22.0554 21 22.5333V37.7C21 38.4169 21.5831 39 22.3 39H30.1C30.8169 39 31.4 38.4169 31.4 37.7V22.5333C31.4 22.0554 31.0113 21.6667 30.5333 21.6667ZM25.732 13.8667H26.668L27.029 18.2H25.371L25.732 13.8667ZM22.7333 19.5C22.7333 19.2611 22.9278 19.0667 23.1667 19.0667H24.9H27.5H29.2333C29.4722 19.0667 29.6667 19.2611 29.6667 19.5V21.6667H22.7333V19.5ZM30.5333 37.7C30.5333 37.9391 30.3389 38.1333 30.1 38.1333H22.3C22.0611 38.1333 21.8667 37.9391 21.8667 37.7V22.5333H22.3H30.1H30.5333V37.7Z" fill="white"/>
<rect x="21.2786" y="22.0999" width="9.75" height="16.25" fill="white"/>
<path d="M28.3445 26.2967C28.2855 26.1198 28.12 26.0005 27.9334 26.0005C27.7468 26.0005 27.5813 26.1198 27.5223 26.2967L27.1717 27.3487L26.625 24.6154C26.5864 24.4229 26.4231 24.2802 26.227 24.268C26.0325 24.2555 25.8512 24.3769 25.789 24.5633L24.7691 27.6229L24.394 27.0601C24.2945 26.9107 24.114 26.8379 23.9376 26.8777C23.7624 26.9175 23.6299 27.0614 23.6045 27.2391L23.2888 29.4489C23.2019 30.0558 23.2433 30.6626 23.412 31.2525L23.5743 31.8204C23.9071 32.9863 24.9866 33.8005 26.199 33.8005H26.4191C27.5126 33.8005 28.4975 33.1509 28.9281 32.1458L29.0474 31.8674C29.4662 30.8911 29.5117 29.798 29.1757 28.79L28.3445 26.2967Z" fill="#FE6350"/>
</g>
<defs>
<filter id="filter0_d" x="0" y="0" width="52" height="52" filterUnits="userSpaceOnUse" color-interpolation-filters="sRGB">
<feFlood flood-opacity="0" result="BackgroundImageFix"/>
<feColorMatrix in="SourceAlpha" type="matrix" values="0 0 0 0 0 0 0 0 0 0 0 0 0 0 0 0 0 0 127 0"/>
<feOffset/>
<feGaussianBlur stdDeviation="3"/>
<feColorMatrix type="matrix" values="0 0 0 0 0.479167 0 0 0 0 0.471181 0 0 0 0 0.471181 0 0 0 0.25 0"/>
<feBlend mode="normal" in2="BackgroundImageFix" result="effect1_dropShadow"/>
<feBlend mode="normal" in="SourceGraphic" in2="effect1_dropShadow" result="shape"/>
</filter>
</defs>
</svg>
