<svg width="149" height="48" viewBox="0 0 149 48" fill="none" xmlns="http://www.w3.org/2000/svg">
<path d="M66.7793 28.4121C66.1413 28.7402 65.4714 28.9863 64.7695 29.1504C64.0677 29.3145 63.3294 29.3965 62.5547 29.3965C59.8021 29.3965 57.7012 28.4896 56.252 26.6758C54.8027 24.862 54.0781 22.2415 54.0781 18.8145C54.0781 15.3783 54.8027 12.7533 56.252 10.9395C57.7012 9.12565 59.8021 8.21875 62.5547 8.21875C63.3294 8.21875 64.0723 8.30078 64.7832 8.46484C65.4941 8.62891 66.1595 8.875 66.7793 9.20312V13.6875C66.0866 13.0495 65.4121 12.5846 64.7559 12.293C64.1087 11.9922 63.4388 11.8418 62.7461 11.8418C61.2695 11.8418 60.153 12.4297 59.3965 13.6055C58.6491 14.7721 58.2754 16.5085 58.2754 18.8145C58.2754 21.1113 58.6491 22.8477 59.3965 24.0234C60.153 25.1901 61.2695 25.7734 62.7461 25.7734C63.4388 25.7734 64.1087 25.6276 64.7559 25.3359C65.4121 25.0352 66.0866 24.5658 66.7793 23.9277V28.4121ZM76.453 16.5723C75.4959 16.5723 74.744 16.9961 74.1971 17.8438C73.6502 18.6823 73.3768 19.8535 73.3768 21.3574C73.3768 22.8613 73.6502 24.0371 74.1971 24.8848C74.744 25.7233 75.4959 26.1426 76.453 26.1426C77.4191 26.1426 78.1756 25.7233 78.7225 24.8848C79.2694 24.0371 79.5428 22.8613 79.5428 21.3574C79.5428 19.8535 79.2694 18.6823 78.7225 17.8438C78.1756 16.9961 77.4191 16.5723 76.453 16.5723ZM69.3709 21.3574C69.3709 18.8874 70.009 16.9323 71.285 15.4922C72.5702 14.043 74.2928 13.3184 76.453 13.3184C78.6222 13.3184 80.3449 14.043 81.6209 15.4922C82.9061 16.9323 83.5487 18.8874 83.5487 21.3574C83.5487 23.8275 82.9061 25.7871 81.6209 27.2363C80.3449 28.6764 78.6222 29.3965 76.453 29.3965C74.2928 29.3965 72.5702 28.6764 71.285 27.2363C70.009 25.7871 69.3709 23.8275 69.3709 21.3574ZM89.3532 22.6152V10.8027H85.2927V7.72656H93.3591V22.6152C93.3591 23.8184 93.5459 24.6706 93.9196 25.1719C94.2933 25.6732 94.9268 25.9238 95.82 25.9238H99.0192V29H94.6989C92.794 29 91.4268 28.5078 90.5973 27.5234C89.7679 26.5391 89.3532 24.903 89.3532 22.6152ZM105.384 22.6152V10.8027H101.324V7.72656H109.39V22.6152C109.39 23.8184 109.577 24.6706 109.951 25.1719C110.324 25.6732 110.958 25.9238 111.851 25.9238H115.05V29H110.73C108.825 29 107.458 28.5078 106.628 27.5234C105.799 26.5391 105.384 24.903 105.384 22.6152ZM125.695 21.8086C124.2 21.8086 123.156 22 122.564 22.3828C121.971 22.7656 121.675 23.4219 121.675 24.3516C121.675 25.0443 121.88 25.5957 122.29 26.0059C122.701 26.416 123.257 26.6211 123.958 26.6211C125.016 26.6211 125.836 26.2246 126.419 25.4316C127.003 24.6296 127.294 23.513 127.294 22.082V21.8086H125.695ZM131.273 20.2637V29H127.294V27.291C126.811 27.9655 126.191 28.485 125.435 28.8496C124.678 29.2142 123.844 29.3965 122.933 29.3965C121.192 29.3965 119.834 28.9362 118.859 28.0156C117.893 27.0951 117.41 25.8099 117.41 24.1602C117.41 22.3737 117.988 21.0566 119.146 20.209C120.303 19.3522 122.094 18.9238 124.519 18.9238H127.294V18.2539C127.294 17.6068 127.057 17.1191 126.583 16.791C126.119 16.4538 125.43 16.2852 124.519 16.2852C123.562 16.2852 122.632 16.4082 121.73 16.6543C120.837 16.8913 119.902 17.2741 118.927 17.8027V14.3848C119.811 14.0202 120.709 13.7513 121.62 13.5781C122.532 13.4049 123.498 13.3184 124.519 13.3184C127.007 13.3184 128.753 13.8242 129.755 14.8359C130.767 15.8477 131.273 17.6569 131.273 20.2637ZM143.777 21.3848C143.777 19.9082 143.53 18.7507 143.038 17.9121C142.546 17.0736 141.867 16.6543 141.001 16.6543C140.135 16.6543 139.452 17.0736 138.95 17.9121C138.449 18.7507 138.198 19.9082 138.198 21.3848C138.198 22.8613 138.449 24.0189 138.95 24.8574C139.452 25.696 140.135 26.1152 141.001 26.1152C141.867 26.1152 142.546 25.696 143.038 24.8574C143.53 24.0189 143.777 22.8613 143.777 21.3848ZM138.198 15.8613C138.691 15.0137 139.26 14.3802 139.907 13.9609C140.564 13.5326 141.302 13.3184 142.122 13.3184C143.936 13.3184 145.331 14.0111 146.306 15.3965C147.29 16.7819 147.782 18.7689 147.782 21.3574C147.782 23.9095 147.299 25.8874 146.333 27.291C145.367 28.6947 144.009 29.3965 142.259 29.3965C141.338 29.3965 140.536 29.1732 139.853 28.7266C139.169 28.2799 138.618 27.6146 138.198 26.7305V29H134.206V7.72656H138.198V15.8613Z" fill="#292930"/>
<path d="M124.19 40.17C124.19 40.5033 124.11 40.8133 123.95 41.1C123.79 41.3867 123.547 41.62 123.22 41.8C122.893 41.98 122.49 42.07 122.01 42.07C121.543 42.07 121.127 41.9867 120.76 41.82C120.4 41.6467 120.11 41.4133 119.89 41.12C119.677 40.82 119.553 40.48 119.52 40.1H120.49C120.51 40.3 120.577 40.4967 120.69 40.69C120.81 40.8767 120.977 41.0333 121.19 41.16C121.41 41.28 121.673 41.34 121.98 41.34C122.38 41.34 122.687 41.2333 122.9 41.02C123.113 40.8067 123.22 40.5333 123.22 40.2C123.22 39.9133 123.143 39.68 122.99 39.5C122.843 39.32 122.66 39.18 122.44 39.08C122.22 38.9733 121.92 38.86 121.54 38.74C121.093 38.5933 120.733 38.4567 120.46 38.33C120.193 38.1967 119.963 38 119.77 37.74C119.583 37.48 119.49 37.1367 119.49 36.71C119.49 36.3433 119.577 36.02 119.75 35.74C119.93 35.46 120.183 35.2433 120.51 35.09C120.843 34.9367 121.233 34.86 121.68 34.86C122.373 34.86 122.923 35.03 123.33 35.37C123.737 35.7033 123.973 36.13 124.04 36.65H123.06C123.007 36.37 122.863 36.1233 122.63 35.91C122.397 35.6967 122.08 35.59 121.68 35.59C121.313 35.59 121.02 35.6867 120.8 35.88C120.58 36.0667 120.47 36.3333 120.47 36.68C120.47 36.9533 120.54 37.1767 120.68 37.35C120.827 37.5167 121.007 37.65 121.22 37.75C121.433 37.8433 121.727 37.95 122.1 38.07C122.553 38.2167 122.917 38.3567 123.19 38.49C123.47 38.6233 123.707 38.8267 123.9 39.1C124.093 39.3667 124.19 39.7233 124.19 40.17ZM127.364 36.44C127.897 36.44 128.347 36.5733 128.714 36.84C129.087 37.1067 129.347 37.4633 129.494 37.91V36.51H130.404V42H129.494V40.6C129.347 41.0467 129.087 41.4033 128.714 41.67C128.347 41.9367 127.897 42.07 127.364 42.07C126.877 42.07 126.444 41.9567 126.064 41.73C125.684 41.5033 125.384 41.18 125.164 40.76C124.95 40.3333 124.844 39.8333 124.844 39.26C124.844 38.6867 124.95 38.1867 125.164 37.76C125.384 37.3333 125.684 37.0067 126.064 36.78C126.444 36.5533 126.877 36.44 127.364 36.44ZM127.624 37.25C127.064 37.25 126.614 37.43 126.274 37.79C125.94 38.1433 125.774 38.6333 125.774 39.26C125.774 39.8867 125.94 40.38 126.274 40.74C126.614 41.0933 127.064 41.27 127.624 41.27C127.984 41.27 128.304 41.1867 128.584 41.02C128.87 40.8533 129.094 40.62 129.254 40.32C129.414 40.0133 129.494 39.66 129.494 39.26C129.494 38.86 129.414 38.5067 129.254 38.2C129.094 37.8933 128.87 37.66 128.584 37.5C128.304 37.3333 127.984 37.25 127.624 37.25ZM136.432 36.51V42H135.522V40.71C135.382 41.1567 135.132 41.5 134.772 41.74C134.419 41.9733 134.005 42.09 133.532 42.09C132.899 42.09 132.385 41.8867 131.992 41.48C131.599 41.0667 131.402 40.4767 131.402 39.71V36.51H132.312V39.62C132.312 40.1667 132.452 40.59 132.732 40.89C133.012 41.1833 133.392 41.33 133.872 41.33C134.372 41.33 134.772 41.17 135.072 40.85C135.372 40.5233 135.522 40.05 135.522 39.43V36.51H136.432ZM140.02 36.44C140.72 36.44 141.3 36.6267 141.76 37C142.22 37.3733 142.503 37.8733 142.61 38.5H141.65C141.583 38.1067 141.4 37.8 141.1 37.58C140.806 37.3533 140.44 37.24 140 37.24C139.68 37.24 139.386 37.3133 139.12 37.46C138.86 37.6067 138.65 37.8333 138.49 38.14C138.33 38.44 138.25 38.8133 138.25 39.26C138.25 39.7067 138.33 40.0833 138.49 40.39C138.65 40.69 138.86 40.9133 139.12 41.06C139.386 41.2067 139.68 41.28 140 41.28C140.44 41.28 140.806 41.1667 141.1 40.94C141.4 40.7133 141.583 40.4033 141.65 40.01H142.61C142.503 40.6433 142.22 41.1467 141.76 41.52C141.3 41.8867 140.72 42.07 140.02 42.07C139.493 42.07 139.026 41.9567 138.62 41.73C138.213 41.5033 137.893 41.18 137.66 40.76C137.433 40.3333 137.32 39.8333 137.32 39.26C137.32 38.6867 137.433 38.1867 137.66 37.76C137.893 37.3333 138.213 37.0067 138.62 36.78C139.026 36.5533 139.493 36.44 140.02 36.44ZM148.551 38.95C148.551 39.1433 148.537 39.31 148.511 39.45H144.121C144.141 40.0767 144.317 40.5467 144.651 40.86C144.991 41.1733 145.404 41.33 145.891 41.33C146.331 41.33 146.697 41.22 146.991 41C147.291 40.7733 147.474 40.4733 147.541 40.1H148.511C148.444 40.48 148.294 40.82 148.061 41.12C147.834 41.42 147.537 41.6533 147.171 41.82C146.804 41.9867 146.391 42.07 145.931 42.07C145.404 42.07 144.937 41.9567 144.531 41.73C144.124 41.5033 143.804 41.18 143.571 40.76C143.344 40.3333 143.231 39.8333 143.231 39.26C143.231 38.6867 143.344 38.1867 143.571 37.76C143.804 37.3333 144.124 37.0067 144.531 36.78C144.937 36.5533 145.404 36.44 145.931 36.44C146.464 36.44 146.927 36.5533 147.321 36.78C147.721 37.0067 148.024 37.31 148.231 37.69C148.444 38.07 148.551 38.49 148.551 38.95ZM147.631 39.01C147.651 38.6033 147.584 38.2633 147.431 37.99C147.277 37.7167 147.067 37.5133 146.801 37.38C146.534 37.2467 146.244 37.18 145.931 37.18C145.431 37.18 145.011 37.3367 144.671 37.65C144.331 37.9567 144.147 38.41 144.121 39.01H147.631Z" fill="#292930"/>
<g filter="url(#filter0_d)">
<rect x="4" y="4" width="40" height="40" rx="11.4286" fill="#548DE6"/>
<path d="M28.5333 19.6667V17.5C28.5333 16.7831 27.9502 16.2 27.2333 16.2H25.8987L25.4985 11.3974C25.4797 11.1727 25.292 11 25.0667 11H23.3333C23.108 11 22.9203 11.1727 22.9015 11.3974L22.5013 16.2H21.1667C20.4498 16.2 19.8667 16.7831 19.8667 17.5V19.6667C19.3887 19.6667 19 20.0554 19 20.5333V35.7C19 36.4169 19.5831 37 20.3 37H28.1C28.8169 37 29.4 36.4169 29.4 35.7V20.5333C29.4 20.0554 29.0113 19.6667 28.5333 19.6667ZM23.732 11.8667H24.668L25.029 16.2H23.371L23.732 11.8667ZM20.7333 17.5C20.7333 17.2611 20.9278 17.0667 21.1667 17.0667H22.9H25.5H27.2333C27.4722 17.0667 27.6667 17.2611 27.6667 17.5V19.6667H20.7333V17.5ZM28.5333 35.7C28.5333 35.9391 28.3389 36.1333 28.1 36.1333H20.3C20.0611 36.1333 19.8667 35.9391 19.8667 35.7V20.5333H20.3H28.1H28.5333V35.7Z" fill="white"/>
<rect x="19.2786" y="20.0999" width="9.75" height="16.25" fill="white"/>
<path d="M26.3445 24.2967C26.2855 24.1198 26.12 24.0005 25.9334 24.0005C25.7468 24.0005 25.5813 24.1198 25.5223 24.2967L25.1717 25.3487L24.625 22.6154C24.5864 22.4229 24.4231 22.2802 24.227 22.268C24.0325 22.2555 23.8512 22.3769 23.789 22.5633L22.7691 25.6229L22.394 25.0601C22.2945 24.9107 22.114 24.8379 21.9376 24.8777C21.7624 24.9175 21.6299 25.0614 21.6045 25.2391L21.2888 27.4489C21.2019 28.0558 21.2433 28.6626 21.412 29.2525L21.5743 29.8204C21.9071 30.9863 22.9866 31.8005 24.199 31.8005H24.4191C25.5126 31.8005 26.4975 31.1509 26.9281 30.1458L27.0474 29.8674C27.4662 28.8911 27.5117 27.798 27.1757 26.79L26.3445 24.2967Z" fill="#FE6350"/>
</g>
<defs>
<filter id="filter0_d" x="0" y="0" width="48" height="48" filterUnits="userSpaceOnUse" color-interpolation-filters="sRGB">
<feFlood flood-opacity="0" result="BackgroundImageFix"/>
<feColorMatrix in="SourceAlpha" type="matrix" values="0 0 0 0 0 0 0 0 0 0 0 0 0 0 0 0 0 0 127 0"/>
<feOffset/>
<feGaussianBlur stdDeviation="2"/>
<feColorMatrix type="matrix" values="0 0 0 0 0.45 0 0 0 0 0.45 0 0 0 0 0.45 0 0 0 0.25 0"/>
<feBlend mode="normal" in2="BackgroundImageFix" result="effect1_dropShadow"/>
<feBlend mode="normal" in="SourceGraphic" in2="effect1_dropShadow" result="shape"/>
</filter>
</defs>
</svg>
