<svg width="145" height="40" viewBox="0 0 145 40" fill="none" xmlns="http://www.w3.org/2000/svg">
<path d="M62.7793 24.4121C62.1413 24.7402 61.4714 24.9863 60.7695 25.1504C60.0677 25.3145 59.3294 25.3965 58.5547 25.3965C55.8021 25.3965 53.7012 24.4896 52.252 22.6758C50.8027 20.862 50.0781 18.2415 50.0781 14.8145C50.0781 11.3783 50.8027 8.75326 52.252 6.93945C53.7012 5.12565 55.8021 4.21875 58.5547 4.21875C59.3294 4.21875 60.0723 4.30078 60.7832 4.46484C61.4941 4.62891 62.1595 4.875 62.7793 5.20312V9.6875C62.0866 9.04948 61.4121 8.58464 60.7559 8.29297C60.1087 7.99219 59.4388 7.8418 58.7461 7.8418C57.2695 7.8418 56.153 8.42969 55.3965 9.60547C54.6491 10.7721 54.2754 12.5085 54.2754 14.8145C54.2754 17.1113 54.6491 18.8477 55.3965 20.0234C56.153 21.1901 57.2695 21.7734 58.7461 21.7734C59.4388 21.7734 60.1087 21.6276 60.7559 21.3359C61.4121 21.0352 62.0866 20.5658 62.7793 19.9277V24.4121ZM72.453 12.5723C71.4959 12.5723 70.744 12.9961 70.1971 13.8438C69.6502 14.6823 69.3768 15.8535 69.3768 17.3574C69.3768 18.8613 69.6502 20.0371 70.1971 20.8848C70.744 21.7233 71.4959 22.1426 72.453 22.1426C73.4191 22.1426 74.1756 21.7233 74.7225 20.8848C75.2694 20.0371 75.5428 18.8613 75.5428 17.3574C75.5428 15.8535 75.2694 14.6823 74.7225 13.8438C74.1756 12.9961 73.4191 12.5723 72.453 12.5723ZM65.3709 17.3574C65.3709 14.8874 66.009 12.9323 67.285 11.4922C68.5702 10.043 70.2928 9.31836 72.453 9.31836C74.6222 9.31836 76.3449 10.043 77.6209 11.4922C78.9061 12.9323 79.5487 14.8874 79.5487 17.3574C79.5487 19.8275 78.9061 21.7871 77.6209 23.2363C76.3449 24.6764 74.6222 25.3965 72.453 25.3965C70.2928 25.3965 68.5702 24.6764 67.285 23.2363C66.009 21.7871 65.3709 19.8275 65.3709 17.3574ZM85.3532 18.6152V6.80273H81.2927V3.72656H89.3591V18.6152C89.3591 19.8184 89.5459 20.6706 89.9196 21.1719C90.2933 21.6732 90.9268 21.9238 91.82 21.9238H95.0192V25H90.6989C88.794 25 87.4268 24.5078 86.5973 23.5234C85.7679 22.5391 85.3532 20.903 85.3532 18.6152ZM101.384 18.6152V6.80273H97.3237V3.72656H105.39V18.6152C105.39 19.8184 105.577 20.6706 105.951 21.1719C106.324 21.6732 106.958 21.9238 107.851 21.9238H111.05V25H106.73C104.825 25 103.458 24.5078 102.628 23.5234C101.799 22.5391 101.384 20.903 101.384 18.6152ZM121.695 17.8086C120.2 17.8086 119.156 18 118.564 18.3828C117.971 18.7656 117.675 19.4219 117.675 20.3516C117.675 21.0443 117.88 21.5957 118.29 22.0059C118.701 22.416 119.257 22.6211 119.958 22.6211C121.016 22.6211 121.836 22.2246 122.419 21.4316C123.003 20.6296 123.294 19.513 123.294 18.082V17.8086H121.695ZM127.273 16.2637V25H123.294V23.291C122.811 23.9655 122.191 24.485 121.435 24.8496C120.678 25.2142 119.844 25.3965 118.933 25.3965C117.192 25.3965 115.834 24.9362 114.859 24.0156C113.893 23.0951 113.41 21.8099 113.41 20.1602C113.41 18.3737 113.988 17.0566 115.146 16.209C116.303 15.3522 118.094 14.9238 120.519 14.9238H123.294V14.2539C123.294 13.6068 123.057 13.1191 122.583 12.791C122.119 12.4538 121.43 12.2852 120.519 12.2852C119.562 12.2852 118.632 12.4082 117.73 12.6543C116.837 12.8913 115.902 13.2741 114.927 13.8027V10.3848C115.811 10.0202 116.709 9.7513 117.62 9.57812C118.532 9.40495 119.498 9.31836 120.519 9.31836C123.007 9.31836 124.753 9.82422 125.755 10.8359C126.767 11.8477 127.273 13.6569 127.273 16.2637ZM139.777 17.3848C139.777 15.9082 139.53 14.7507 139.038 13.9121C138.546 13.0736 137.867 12.6543 137.001 12.6543C136.135 12.6543 135.452 13.0736 134.95 13.9121C134.449 14.7507 134.198 15.9082 134.198 17.3848C134.198 18.8613 134.449 20.0189 134.95 20.8574C135.452 21.696 136.135 22.1152 137.001 22.1152C137.867 22.1152 138.546 21.696 139.038 20.8574C139.53 20.0189 139.777 18.8613 139.777 17.3848ZM134.198 11.8613C134.691 11.0137 135.26 10.3802 135.907 9.96094C136.564 9.53255 137.302 9.31836 138.122 9.31836C139.936 9.31836 141.331 10.0111 142.306 11.3965C143.29 12.7819 143.782 14.7689 143.782 17.3574C143.782 19.9095 143.299 21.8874 142.333 23.291C141.367 24.6947 140.009 25.3965 138.259 25.3965C137.338 25.3965 136.536 25.1732 135.853 24.7266C135.169 24.2799 134.618 23.6146 134.198 22.7305V25H130.206V3.72656H134.198V11.8613Z" fill="#292930"/>
<path d="M120.19 36.17C120.19 36.5033 120.11 36.8133 119.95 37.1C119.79 37.3867 119.547 37.62 119.22 37.8C118.893 37.98 118.49 38.07 118.01 38.07C117.543 38.07 117.127 37.9867 116.76 37.82C116.4 37.6467 116.11 37.4133 115.89 37.12C115.677 36.82 115.553 36.48 115.52 36.1H116.49C116.51 36.3 116.577 36.4967 116.69 36.69C116.81 36.8767 116.977 37.0333 117.19 37.16C117.41 37.28 117.673 37.34 117.98 37.34C118.38 37.34 118.687 37.2333 118.9 37.02C119.113 36.8067 119.22 36.5333 119.22 36.2C119.22 35.9133 119.143 35.68 118.99 35.5C118.843 35.32 118.66 35.18 118.44 35.08C118.22 34.9733 117.92 34.86 117.54 34.74C117.093 34.5933 116.733 34.4567 116.46 34.33C116.193 34.1967 115.963 34 115.77 33.74C115.583 33.48 115.49 33.1367 115.49 32.71C115.49 32.3433 115.577 32.02 115.75 31.74C115.93 31.46 116.183 31.2433 116.51 31.09C116.843 30.9367 117.233 30.86 117.68 30.86C118.373 30.86 118.923 31.03 119.33 31.37C119.737 31.7033 119.973 32.13 120.04 32.65H119.06C119.007 32.37 118.863 32.1233 118.63 31.91C118.397 31.6967 118.08 31.59 117.68 31.59C117.313 31.59 117.02 31.6867 116.8 31.88C116.58 32.0667 116.47 32.3333 116.47 32.68C116.47 32.9533 116.54 33.1767 116.68 33.35C116.827 33.5167 117.007 33.65 117.22 33.75C117.433 33.8433 117.727 33.95 118.1 34.07C118.553 34.2167 118.917 34.3567 119.19 34.49C119.47 34.6233 119.707 34.8267 119.9 35.1C120.093 35.3667 120.19 35.7233 120.19 36.17ZM123.364 32.44C123.897 32.44 124.347 32.5733 124.714 32.84C125.087 33.1067 125.347 33.4633 125.494 33.91V32.51H126.404V38H125.494V36.6C125.347 37.0467 125.087 37.4033 124.714 37.67C124.347 37.9367 123.897 38.07 123.364 38.07C122.877 38.07 122.444 37.9567 122.064 37.73C121.684 37.5033 121.384 37.18 121.164 36.76C120.95 36.3333 120.844 35.8333 120.844 35.26C120.844 34.6867 120.95 34.1867 121.164 33.76C121.384 33.3333 121.684 33.0067 122.064 32.78C122.444 32.5533 122.877 32.44 123.364 32.44ZM123.624 33.25C123.064 33.25 122.614 33.43 122.274 33.79C121.94 34.1433 121.774 34.6333 121.774 35.26C121.774 35.8867 121.94 36.38 122.274 36.74C122.614 37.0933 123.064 37.27 123.624 37.27C123.984 37.27 124.304 37.1867 124.584 37.02C124.87 36.8533 125.094 36.62 125.254 36.32C125.414 36.0133 125.494 35.66 125.494 35.26C125.494 34.86 125.414 34.5067 125.254 34.2C125.094 33.8933 124.87 33.66 124.584 33.5C124.304 33.3333 123.984 33.25 123.624 33.25ZM132.432 32.51V38H131.522V36.71C131.382 37.1567 131.132 37.5 130.772 37.74C130.419 37.9733 130.005 38.09 129.532 38.09C128.899 38.09 128.385 37.8867 127.992 37.48C127.599 37.0667 127.402 36.4767 127.402 35.71V32.51H128.312V35.62C128.312 36.1667 128.452 36.59 128.732 36.89C129.012 37.1833 129.392 37.33 129.872 37.33C130.372 37.33 130.772 37.17 131.072 36.85C131.372 36.5233 131.522 36.05 131.522 35.43V32.51H132.432ZM136.02 32.44C136.72 32.44 137.3 32.6267 137.76 33C138.22 33.3733 138.503 33.8733 138.61 34.5H137.65C137.583 34.1067 137.4 33.8 137.1 33.58C136.806 33.3533 136.44 33.24 136 33.24C135.68 33.24 135.386 33.3133 135.12 33.46C134.86 33.6067 134.65 33.8333 134.49 34.14C134.33 34.44 134.25 34.8133 134.25 35.26C134.25 35.7067 134.33 36.0833 134.49 36.39C134.65 36.69 134.86 36.9133 135.12 37.06C135.386 37.2067 135.68 37.28 136 37.28C136.44 37.28 136.806 37.1667 137.1 36.94C137.4 36.7133 137.583 36.4033 137.65 36.01H138.61C138.503 36.6433 138.22 37.1467 137.76 37.52C137.3 37.8867 136.72 38.07 136.02 38.07C135.493 38.07 135.026 37.9567 134.62 37.73C134.213 37.5033 133.893 37.18 133.66 36.76C133.433 36.3333 133.32 35.8333 133.32 35.26C133.32 34.6867 133.433 34.1867 133.66 33.76C133.893 33.3333 134.213 33.0067 134.62 32.78C135.026 32.5533 135.493 32.44 136.02 32.44ZM144.551 34.95C144.551 35.1433 144.537 35.31 144.511 35.45H140.121C140.141 36.0767 140.317 36.5467 140.651 36.86C140.991 37.1733 141.404 37.33 141.891 37.33C142.331 37.33 142.697 37.22 142.991 37C143.291 36.7733 143.474 36.4733 143.541 36.1H144.511C144.444 36.48 144.294 36.82 144.061 37.12C143.834 37.42 143.537 37.6533 143.171 37.82C142.804 37.9867 142.391 38.07 141.931 38.07C141.404 38.07 140.937 37.9567 140.531 37.73C140.124 37.5033 139.804 37.18 139.571 36.76C139.344 36.3333 139.231 35.8333 139.231 35.26C139.231 34.6867 139.344 34.1867 139.571 33.76C139.804 33.3333 140.124 33.0067 140.531 32.78C140.937 32.5533 141.404 32.44 141.931 32.44C142.464 32.44 142.927 32.5533 143.321 32.78C143.721 33.0067 144.024 33.31 144.231 33.69C144.444 34.07 144.551 34.49 144.551 34.95ZM143.631 35.01C143.651 34.6033 143.584 34.2633 143.431 33.99C143.277 33.7167 143.067 33.5133 142.801 33.38C142.534 33.2467 142.244 33.18 141.931 33.18C141.431 33.18 141.011 33.3367 140.671 33.65C140.331 33.9567 140.147 34.41 140.121 35.01H143.631Z" fill="#292930"/>
<rect width="40" height="40" rx="11.4286" fill="white"/>
<path d="M24.5333 15.6667V13.5C24.5333 12.7831 23.9502 12.2 23.2333 12.2H21.8987L21.4985 7.39736C21.4797 7.17266 21.292 7 21.0667 7H19.3333C19.108 7 18.9203 7.17266 18.9015 7.39736L18.5013 12.2H17.1667C16.4498 12.2 15.8667 12.7831 15.8667 13.5V15.6667C15.3887 15.6667 15 16.0554 15 16.5333V31.7C15 32.4169 15.5831 33 16.3 33H24.1C24.8169 33 25.4 32.4169 25.4 31.7V16.5333C25.4 16.0554 25.0113 15.6667 24.5333 15.6667ZM19.732 7.86667H20.668L21.029 12.2H19.371L19.732 7.86667ZM16.7333 13.5C16.7333 13.2611 16.9278 13.0667 17.1667 13.0667H18.9H21.5H23.2333C23.4722 13.0667 23.6667 13.2611 23.6667 13.5V15.6667H16.7333V13.5ZM24.5333 31.7C24.5333 31.9391 24.3389 32.1333 24.1 32.1333H16.3C16.0611 32.1333 15.8667 31.9391 15.8667 31.7V16.5333H16.3H24.1H24.5333V31.7Z" fill="#548DE6"/>
<rect x="15.2786" y="16.0996" width="9.75" height="16.25" fill="#548DE6"/>
<path d="M22.3445 20.2972C22.2855 20.1203 22.12 20.0009 21.9334 20.0009C21.7468 20.0009 21.5813 20.1203 21.5223 20.2972L21.1717 21.3492L20.625 18.6159C20.5864 18.4233 20.4231 18.2807 20.227 18.2685C20.0325 18.256 19.8512 18.3774 19.789 18.5638L18.7691 21.6234L18.394 21.0606C18.2945 20.9112 18.114 20.8384 17.9376 20.8782C17.7624 20.918 17.6299 21.0619 17.6045 21.2396L17.2888 23.4494C17.2019 24.0563 17.2433 24.6631 17.412 25.253L17.5743 25.8209C17.9071 26.9868 18.9866 27.8009 20.199 27.8009H20.4191C21.5126 27.8009 22.4975 27.1514 22.9281 26.1463L23.0474 25.8679C23.4662 24.8916 23.5117 23.7985 23.1757 22.7905L22.3445 20.2972Z" fill="#FE6350"/>
</svg>
