<svg width="50" height="50" viewBox="0 0 50 50" fill="none" xmlns="http://www.w3.org/2000/svg">
<rect width="50" height="50" rx="14" fill="white"/>
<path d="M30.6667 19.5833V16.875C30.6667 15.9789 29.9377 15.25 29.0417 15.25H27.3734L26.8731 9.2467C26.8496 8.96582 26.615 8.75 26.3333 8.75H24.1667C23.885 8.75 23.6504 8.96582 23.6269 9.2467L23.1266 15.25H21.4583C20.5623 15.25 19.8333 15.9789 19.8333 16.875V19.5833C19.2359 19.5833 18.75 20.0692 18.75 20.6667V39.625C18.75 40.5211 19.4789 41.25 20.375 41.25H30.125C31.0211 41.25 31.75 40.5211 31.75 39.625V20.6667C31.75 20.0692 31.2641 19.5833 30.6667 19.5833ZM24.665 9.83333H25.835L26.2863 15.25H24.2137L24.665 9.83333ZM20.9167 16.875C20.9167 16.5764 21.1597 16.3333 21.4583 16.3333H23.625H26.875H29.0417C29.3403 16.3333 29.5833 16.5764 29.5833 16.875V19.5833H20.9167V16.875ZM30.6667 39.625C30.6667 39.9239 30.4236 40.1667 30.125 40.1667H20.375C20.0764 40.1667 19.8333 39.9239 19.8333 39.625V20.6667H20.375H30.125H30.6667V39.625Z" fill="#548DE6"/>
<rect x="19.0983" y="20.1245" width="12.1875" height="20.3125" fill="#548DE6"/>
<path d="M27.9306 25.371C27.8568 25.1499 27.65 25.0007 27.4167 25.0007C27.1834 25.0007 26.9766 25.1499 26.9028 25.371L26.4646 26.686L25.7811 23.2694C25.733 23.0287 25.5288 22.8504 25.2836 22.8351C25.0406 22.8195 24.8139 22.9713 24.7362 23.2043L23.4613 27.0288L22.9924 26.3252C22.8681 26.1385 22.6425 26.0475 22.4219 26.0973C22.2029 26.147 22.0373 26.3268 22.0056 26.549L21.611 29.3113C21.5023 30.0698 21.5541 30.8284 21.7649 31.5658L21.9678 32.2756C22.3838 33.733 23.7332 34.7507 25.2487 34.7507H25.5238C26.8907 34.7507 28.1218 33.9387 28.6601 32.6824L28.8092 32.3344C29.3326 31.114 29.3895 29.7477 28.9695 28.4877L27.9306 25.371Z" fill="#FE6350"/>
</svg>
